<mxfile host="app.diagrams.net" modified="2022-08-16T14:21:58.175Z" agent="5.0 (Windows NT 10.0; Win64; x64) AppleWebKit/537.36 (KHTML, like Gecko) Chrome/104.0.0.0 Safari/537.36" etag="5k8poY1OtkM7muMw48uw" version="20.2.4" type="github">
  <diagram id="ZAzXdWNPiPOYo80bpY0D" name="Seite-1">
    <mxGraphModel dx="1208" dy="738" grid="1" gridSize="10" guides="1" tooltips="1" connect="1" arrows="1" fold="1" page="1" pageScale="1" pageWidth="827" pageHeight="1169" math="0" shadow="0">
      <root>
        <mxCell id="0" />
        <mxCell id="1" parent="0" />
        <mxCell id="tHBeM4b-7FQ3RGMDUnNd-1" value="" style="rounded=0;whiteSpace=wrap;html=1;" vertex="1" parent="1">
          <mxGeometry x="30" y="50" width="320" height="160" as="geometry" />
        </mxCell>
        <mxCell id="tHBeM4b-7FQ3RGMDUnNd-3" value="" style="rounded=0;whiteSpace=wrap;html=1;" vertex="1" parent="1">
          <mxGeometry x="370" y="50" width="320" height="160" as="geometry" />
        </mxCell>
        <mxCell id="tHBeM4b-7FQ3RGMDUnNd-4" value="" style="rounded=0;whiteSpace=wrap;html=1;" vertex="1" parent="1">
          <mxGeometry x="30" y="230" width="320" height="160" as="geometry" />
        </mxCell>
        <mxCell id="tHBeM4b-7FQ3RGMDUnNd-5" value="" style="rounded=0;whiteSpace=wrap;html=1;" vertex="1" parent="1">
          <mxGeometry x="370" y="230" width="320" height="160" as="geometry" />
        </mxCell>
        <mxCell id="tHBeM4b-7FQ3RGMDUnNd-6" value="" style="rounded=1;whiteSpace=wrap;html=1;strokeWidth=2;fillWeight=4;hachureGap=8;hachureAngle=45;fillColor=#1ba1e2;sketch=1;" vertex="1" parent="1">
          <mxGeometry x="40" y="70" width="220" height="10" as="geometry" />
        </mxCell>
        <mxCell id="tHBeM4b-7FQ3RGMDUnNd-7" value="" style="rounded=1;whiteSpace=wrap;html=1;strokeWidth=2;fillWeight=4;hachureGap=8;hachureAngle=45;fillColor=#1ba1e2;sketch=1;" vertex="1" parent="1">
          <mxGeometry x="40" y="90" width="220" height="10" as="geometry" />
        </mxCell>
        <mxCell id="tHBeM4b-7FQ3RGMDUnNd-8" value="" style="rounded=1;whiteSpace=wrap;html=1;strokeWidth=2;fillWeight=4;hachureGap=8;hachureAngle=45;fillColor=#1ba1e2;sketch=1;" vertex="1" parent="1">
          <mxGeometry x="40" y="110" width="220" height="10" as="geometry" />
        </mxCell>
        <mxCell id="tHBeM4b-7FQ3RGMDUnNd-9" value="" style="rounded=1;whiteSpace=wrap;html=1;strokeWidth=2;fillWeight=4;hachureGap=8;hachureAngle=45;fillColor=#1ba1e2;sketch=1;" vertex="1" parent="1">
          <mxGeometry x="380" y="70" width="220" height="10" as="geometry" />
        </mxCell>
        <mxCell id="tHBeM4b-7FQ3RGMDUnNd-10" value="" style="rounded=1;whiteSpace=wrap;html=1;strokeWidth=2;fillWeight=4;hachureGap=8;hachureAngle=45;fillColor=#1ba1e2;sketch=1;" vertex="1" parent="1">
          <mxGeometry x="380" y="90" width="220" height="10" as="geometry" />
        </mxCell>
        <mxCell id="tHBeM4b-7FQ3RGMDUnNd-11" style="edgeStyle=orthogonalEdgeStyle;rounded=0;orthogonalLoop=1;jettySize=auto;html=1;exitX=0.25;exitY=0;exitDx=0;exitDy=0;entryX=0.161;entryY=-0.233;entryDx=0;entryDy=0;entryPerimeter=0;" edge="1" parent="1" source="tHBeM4b-7FQ3RGMDUnNd-10" target="tHBeM4b-7FQ3RGMDUnNd-10">
          <mxGeometry relative="1" as="geometry" />
        </mxCell>
        <mxCell id="tHBeM4b-7FQ3RGMDUnNd-12" value="" style="rounded=1;whiteSpace=wrap;html=1;strokeWidth=2;fillWeight=4;hachureGap=8;hachureAngle=45;fillColor=#1ba1e2;sketch=1;" vertex="1" parent="1">
          <mxGeometry x="380" y="140" width="220" height="10" as="geometry" />
        </mxCell>
        <mxCell id="tHBeM4b-7FQ3RGMDUnNd-14" value="" style="rounded=1;whiteSpace=wrap;html=1;strokeWidth=2;fillWeight=4;hachureGap=8;hachureAngle=45;fillColor=#1ba1e2;sketch=1;" vertex="1" parent="1">
          <mxGeometry x="100" y="130" width="220" height="10" as="geometry" />
        </mxCell>
        <mxCell id="tHBeM4b-7FQ3RGMDUnNd-16" value="" style="ellipse;whiteSpace=wrap;html=1;strokeWidth=2;fillWeight=2;hachureGap=8;fillColor=#990000;fillStyle=dots;sketch=1;" vertex="1" parent="1">
          <mxGeometry x="360" y="110" width="280" height="20" as="geometry" />
        </mxCell>
        <mxCell id="tHBeM4b-7FQ3RGMDUnNd-17" value="Label" style="html=1;whiteSpace=wrap;container=1;recursiveResize=0;collapsible=0;" vertex="1" parent="1">
          <mxGeometry x="40" y="250" width="160" height="20" as="geometry" />
        </mxCell>
        <mxCell id="tHBeM4b-7FQ3RGMDUnNd-18" value="" style="triangle;html=1;whiteSpace=wrap;" vertex="1" parent="tHBeM4b-7FQ3RGMDUnNd-17">
          <mxGeometry x="20" y="20" width="20" height="30" as="geometry" />
        </mxCell>
        <mxCell id="tHBeM4b-7FQ3RGMDUnNd-19" value="Label" style="html=1;whiteSpace=wrap;container=1;recursiveResize=0;collapsible=0;" vertex="1" parent="1">
          <mxGeometry x="380" y="250" width="160" height="20" as="geometry" />
        </mxCell>
        <mxCell id="tHBeM4b-7FQ3RGMDUnNd-20" value="" style="triangle;html=1;whiteSpace=wrap;" vertex="1" parent="tHBeM4b-7FQ3RGMDUnNd-19">
          <mxGeometry x="20" y="20" width="20" height="30" as="geometry" />
        </mxCell>
        <mxCell id="tHBeM4b-7FQ3RGMDUnNd-21" value="Label" style="html=1;whiteSpace=wrap;container=1;recursiveResize=0;collapsible=0;" vertex="1" parent="1">
          <mxGeometry x="40" y="300" width="160" height="20" as="geometry" />
        </mxCell>
        <mxCell id="tHBeM4b-7FQ3RGMDUnNd-22" value="" style="triangle;html=1;whiteSpace=wrap;" vertex="1" parent="tHBeM4b-7FQ3RGMDUnNd-21">
          <mxGeometry x="20" y="20" width="20" height="30" as="geometry" />
        </mxCell>
        <mxCell id="tHBeM4b-7FQ3RGMDUnNd-23" value="Label" style="html=1;whiteSpace=wrap;container=1;recursiveResize=0;collapsible=0;" vertex="1" parent="1">
          <mxGeometry x="380" y="310" width="160" height="20" as="geometry" />
        </mxCell>
        <mxCell id="tHBeM4b-7FQ3RGMDUnNd-24" value="" style="triangle;html=1;whiteSpace=wrap;" vertex="1" parent="tHBeM4b-7FQ3RGMDUnNd-23">
          <mxGeometry x="20" y="20" width="20" height="30" as="geometry" />
        </mxCell>
        <mxCell id="tHBeM4b-7FQ3RGMDUnNd-25" value="List" style="swimlane;fontStyle=0;childLayout=stackLayout;horizontal=1;startSize=30;horizontalStack=0;resizeParent=1;resizeParentMax=0;resizeLast=0;collapsible=1;marginBottom=0;" vertex="1" parent="1">
          <mxGeometry x="30" y="420" width="660" height="100" as="geometry" />
        </mxCell>
        <mxCell id="tHBeM4b-7FQ3RGMDUnNd-28" value="Comments on selected component" style="text;strokeColor=none;fillColor=none;align=left;verticalAlign=middle;spacingLeft=4;spacingRight=4;overflow=hidden;points=[[0,0.5],[1,0.5]];portConstraint=eastwest;rotatable=0;" vertex="1" parent="tHBeM4b-7FQ3RGMDUnNd-25">
          <mxGeometry y="30" width="660" height="70" as="geometry" />
        </mxCell>
        <mxCell id="tHBeM4b-7FQ3RGMDUnNd-29" value="" style="shape=image;html=1;verticalLabelPosition=bottom;verticalAlign=top;imageAspect=1;aspect=fixed;image=img/clipart/Gear_128x128.png" vertex="1" parent="1">
          <mxGeometry x="210" y="295" width="25.57" height="30" as="geometry" />
        </mxCell>
        <mxCell id="tHBeM4b-7FQ3RGMDUnNd-30" value="Select Change:&amp;nbsp; &amp;lt;Date&amp;gt;" style="html=1;whiteSpace=wrap;container=1;recursiveResize=0;collapsible=0;" vertex="1" parent="1">
          <mxGeometry x="370" y="20" width="320" height="20" as="geometry" />
        </mxCell>
        <mxCell id="tHBeM4b-7FQ3RGMDUnNd-31" value="" style="triangle;html=1;whiteSpace=wrap;" vertex="1" parent="tHBeM4b-7FQ3RGMDUnNd-30">
          <mxGeometry x="20" y="20" width="20" height="30" as="geometry" />
        </mxCell>
        <mxCell id="tHBeM4b-7FQ3RGMDUnNd-36" value="&lt;b&gt;Comment&lt;/b&gt;" style="rounded=1;whiteSpace=wrap;html=1;strokeWidth=2;fillWeight=4;hachureGap=8;hachureAngle=45;fillColor=#1ba1e2;sketch=1;" vertex="1" parent="1">
          <mxGeometry x="500" y="530" width="70" height="30" as="geometry" />
        </mxCell>
        <mxCell id="tHBeM4b-7FQ3RGMDUnNd-37" value="&lt;b&gt;Approve&lt;/b&gt;" style="ellipse;whiteSpace=wrap;html=1;strokeWidth=2;fillWeight=2;hachureGap=8;fillColor=#990000;fillStyle=dots;sketch=1;" vertex="1" parent="1">
          <mxGeometry x="600" y="530" width="80" height="30" as="geometry" />
        </mxCell>
      </root>
    </mxGraphModel>
  </diagram>
</mxfile>
